<mxfile host="Electron" modified="2025-03-07T02:47:23.266Z" agent="Mozilla/5.0 (Windows NT 10.0; Win64; x64) AppleWebKit/537.36 (KHTML, like Gecko) draw.io/24.1.0 Chrome/120.0.6099.109 Electron/28.1.0 Safari/537.36" etag="pGn7e8IphEZtxzR25rJ_" version="24.1.0" type="device">
  <diagram name="Страница — 1" id="KwemdivedEtSwtuKrAqc">
    <mxGraphModel dx="607" dy="844" grid="1" gridSize="10" guides="1" tooltips="1" connect="1" arrows="1" fold="1" page="1" pageScale="1" pageWidth="827" pageHeight="1169" math="0" shadow="0">
      <root>
        <mxCell id="0" />
        <mxCell id="1" parent="0" />
        <mxCell id="rAHK-XAyEVp0NB-nKjGV-1" style="rounded=0;orthogonalLoop=1;jettySize=auto;html=1;exitX=0.5;exitY=0.5;exitDx=0;exitDy=0;exitPerimeter=0;entryX=0;entryY=0.5;entryDx=0;entryDy=0;endArrow=none;startFill=0;" edge="1" parent="1" source="rAHK-XAyEVp0NB-nKjGV-3" target="rAHK-XAyEVp0NB-nKjGV-8">
          <mxGeometry relative="1" as="geometry" />
        </mxCell>
        <mxCell id="rAHK-XAyEVp0NB-nKjGV-2" style="rounded=0;orthogonalLoop=1;jettySize=auto;html=1;exitX=0.5;exitY=0.5;exitDx=0;exitDy=0;exitPerimeter=0;entryX=0;entryY=0.5;entryDx=0;entryDy=0;endArrow=none;startFill=0;" edge="1" parent="1" source="rAHK-XAyEVp0NB-nKjGV-3" target="rAHK-XAyEVp0NB-nKjGV-15">
          <mxGeometry relative="1" as="geometry" />
        </mxCell>
        <mxCell id="rAHK-XAyEVp0NB-nKjGV-3" value="&lt;span style=&quot;background-color: light-dark(#ffffff, var(--ge-dark-color, #121212));&quot;&gt;Тренер&lt;/span&gt;" style="shape=umlActor;verticalLabelPosition=bottom;verticalAlign=top;html=1;outlineConnect=0;" vertex="1" parent="1">
          <mxGeometry x="880.75" y="455" width="30" height="60" as="geometry" />
        </mxCell>
        <mxCell id="rAHK-XAyEVp0NB-nKjGV-4" value="&lt;font style=&quot;font-size: 14px;&quot; face=&quot;Helvetica&quot;&gt;ИС «&lt;span style=&quot;text-align: justify;&quot;&gt;Программа по распределению фитнес-расписания для финтнес-центра&lt;/span&gt;»&amp;nbsp;&lt;/font&gt;" style="shape=umlFrame;whiteSpace=wrap;html=1;pointerEvents=0;recursiveResize=0;container=1;collapsible=0;width=542;height=30;" vertex="1" parent="1">
          <mxGeometry x="930" y="20" width="595" height="620" as="geometry" />
        </mxCell>
        <mxCell id="rAHK-XAyEVp0NB-nKjGV-5" value="&lt;span&gt;Добавить нового тренера&lt;/span&gt;" style="ellipse;whiteSpace=wrap;html=1;" vertex="1" parent="rAHK-XAyEVp0NB-nKjGV-4">
          <mxGeometry x="38.5" y="155" width="159" height="52.5" as="geometry" />
        </mxCell>
        <mxCell id="rAHK-XAyEVp0NB-nKjGV-6" value="&lt;span&gt;Предоставить&amp;nbsp;&lt;/span&gt;&lt;span style=&quot;background-color: transparent; color: light-dark(rgb(0, 0, 0), rgb(255, 255, 255));&quot;&gt;скидку&amp;nbsp;&lt;/span&gt;&lt;span style=&quot;background-color: transparent; color: light-dark(rgb(0, 0, 0), rgb(255, 255, 255));&quot;&gt;на тренировку&amp;nbsp;&lt;/span&gt;&lt;span style=&quot;background-color: transparent; color: light-dark(rgb(0, 0, 0), rgb(255, 255, 255));&quot;&gt;клиенту&lt;/span&gt;" style="ellipse;whiteSpace=wrap;html=1;" vertex="1" parent="rAHK-XAyEVp0NB-nKjGV-4">
          <mxGeometry x="19.5" y="220" width="159" height="50" as="geometry" />
        </mxCell>
        <mxCell id="rAHK-XAyEVp0NB-nKjGV-7" value="&lt;span&gt;&lt;span style=&quot;text-align: justify; color: rgb(0, 0, 0);&quot;&gt;Записать тренера&lt;/span&gt;&lt;span style=&quot;color: light-dark(rgb(0, 0, 0), rgb(255, 255, 255)); text-align: justify;&quot;&gt;&amp;nbsp;на курс обучения&lt;/span&gt;&lt;/span&gt;" style="ellipse;whiteSpace=wrap;html=1;" vertex="1" parent="rAHK-XAyEVp0NB-nKjGV-4">
          <mxGeometry x="19.5" y="90" width="159" height="60" as="geometry" />
        </mxCell>
        <mxCell id="rAHK-XAyEVp0NB-nKjGV-8" value="Посмотреть&lt;br&gt;список своих текущих клиентов&amp;nbsp;" style="ellipse;whiteSpace=wrap;html=1;" vertex="1" parent="rAHK-XAyEVp0NB-nKjGV-4">
          <mxGeometry x="38.5" y="471.25" width="140" height="50" as="geometry" />
        </mxCell>
        <mxCell id="rAHK-XAyEVp0NB-nKjGV-9" style="rounded=0;orthogonalLoop=1;jettySize=auto;html=1;entryX=0.5;entryY=1;entryDx=0;entryDy=0;dashed=1;exitX=0.5;exitY=0;exitDx=0;exitDy=0;" edge="1" parent="rAHK-XAyEVp0NB-nKjGV-4" source="rAHK-XAyEVp0NB-nKjGV-29" target="rAHK-XAyEVp0NB-nKjGV-28">
          <mxGeometry relative="1" as="geometry">
            <mxPoint x="299.5" y="120" as="sourcePoint" />
            <mxPoint x="301.5" y="60" as="targetPoint" />
          </mxGeometry>
        </mxCell>
        <mxCell id="rAHK-XAyEVp0NB-nKjGV-10" value="&lt;span style=&quot;background-color: rgb(251, 251, 251);&quot;&gt;includ&lt;/span&gt;" style="edgeLabel;html=1;align=center;verticalAlign=middle;resizable=0;points=[];" vertex="1" connectable="0" parent="rAHK-XAyEVp0NB-nKjGV-9">
          <mxGeometry x="-0.0688" y="-1" relative="1" as="geometry">
            <mxPoint as="offset" />
          </mxGeometry>
        </mxCell>
        <mxCell id="rAHK-XAyEVp0NB-nKjGV-11" style="edgeStyle=orthogonalEdgeStyle;rounded=0;orthogonalLoop=1;jettySize=auto;html=1;exitX=0.5;exitY=1;exitDx=0;exitDy=0;" edge="1" parent="rAHK-XAyEVp0NB-nKjGV-4">
          <mxGeometry relative="1" as="geometry">
            <mxPoint x="299.5" y="170" as="sourcePoint" />
            <mxPoint x="299.5" y="170" as="targetPoint" />
          </mxGeometry>
        </mxCell>
        <mxCell id="rAHK-XAyEVp0NB-nKjGV-12" style="rounded=0;orthogonalLoop=1;jettySize=auto;html=1;exitX=0;exitY=0.5;exitDx=0;exitDy=0;entryX=1;entryY=0.5;entryDx=0;entryDy=0;dashed=1;" edge="1" parent="rAHK-XAyEVp0NB-nKjGV-4" source="rAHK-XAyEVp0NB-nKjGV-34" target="rAHK-XAyEVp0NB-nKjGV-29">
          <mxGeometry relative="1" as="geometry">
            <mxPoint x="443.00000000000045" y="217.5000000000001" as="sourcePoint" />
            <mxPoint x="370.0000000000002" y="145" as="targetPoint" />
          </mxGeometry>
        </mxCell>
        <mxCell id="rAHK-XAyEVp0NB-nKjGV-13" value="extend" style="edgeLabel;html=1;align=center;verticalAlign=middle;resizable=0;points=[];labelBackgroundColor=default;" vertex="1" connectable="0" parent="rAHK-XAyEVp0NB-nKjGV-12">
          <mxGeometry x="-0.277" y="-2" relative="1" as="geometry">
            <mxPoint x="-11" as="offset" />
          </mxGeometry>
        </mxCell>
        <mxCell id="rAHK-XAyEVp0NB-nKjGV-14" value="Посмотреть&amp;nbsp;&lt;span style=&quot;text-align: justify;&quot;&gt;сегодняшний перечень&amp;nbsp;&lt;/span&gt;&lt;span style=&quot;text-align: justify;&quot;&gt;индивидуальных занятий&lt;/span&gt;" style="ellipse;whiteSpace=wrap;html=1;" vertex="1" parent="rAHK-XAyEVp0NB-nKjGV-4">
          <mxGeometry x="397.7" y="470" width="188.5" height="60" as="geometry" />
        </mxCell>
        <mxCell id="rAHK-XAyEVp0NB-nKjGV-15" value="&lt;span style=&quot;color: light-dark(rgb(0, 0, 0), rgb(255, 255, 255)); background-color: transparent;&quot;&gt;Посмотреть&amp;nbsp;&lt;/span&gt;&lt;span style=&quot;color: light-dark(rgb(0, 0, 0), rgb(255, 255, 255)); background-color: transparent;&quot;&gt;новые&lt;/span&gt;&lt;div&gt;&lt;span style=&quot;color: light-dark(rgb(0, 0, 0), rgb(255, 255, 255)); background-color: transparent;&quot;&gt;заявки&amp;nbsp;&lt;/span&gt;&lt;span style=&quot;background-color: transparent; color: light-dark(rgb(0, 0, 0), rgb(255, 255, 255));&quot;&gt;от клиентов&lt;/span&gt;&lt;/div&gt;&lt;div&gt;&lt;span style=&quot;background-color: transparent; color: light-dark(rgb(0, 0, 0), rgb(255, 255, 255));&quot;&gt;и&amp;nbsp;&lt;/span&gt;&lt;span style=&quot;background-color: transparent; color: light-dark(rgb(0, 0, 0), rgb(255, 255, 255));&quot;&gt;их количество&lt;/span&gt;&lt;/div&gt;" style="ellipse;whiteSpace=wrap;html=1;" vertex="1" parent="rAHK-XAyEVp0NB-nKjGV-4">
          <mxGeometry x="39.5" y="398.75" width="157" height="60" as="geometry" />
        </mxCell>
        <mxCell id="rAHK-XAyEVp0NB-nKjGV-16" value="Принять заявку" style="ellipse;whiteSpace=wrap;html=1;" vertex="1" parent="rAHK-XAyEVp0NB-nKjGV-4">
          <mxGeometry x="262.25" y="418.75" width="106.5" height="40" as="geometry" />
        </mxCell>
        <mxCell id="rAHK-XAyEVp0NB-nKjGV-17" style="rounded=0;orthogonalLoop=1;jettySize=auto;html=1;exitX=0;exitY=0.5;exitDx=0;exitDy=0;entryX=1;entryY=0.5;entryDx=0;entryDy=0;dashed=1;" edge="1" parent="rAHK-XAyEVp0NB-nKjGV-4" source="rAHK-XAyEVp0NB-nKjGV-16" target="rAHK-XAyEVp0NB-nKjGV-15">
          <mxGeometry relative="1" as="geometry" />
        </mxCell>
        <mxCell id="rAHK-XAyEVp0NB-nKjGV-18" value="extend" style="edgeLabel;html=1;align=center;verticalAlign=middle;resizable=0;points=[];labelBackgroundColor=default;" vertex="1" connectable="0" parent="rAHK-XAyEVp0NB-nKjGV-17">
          <mxGeometry x="-0.277" y="-2" relative="1" as="geometry">
            <mxPoint as="offset" />
          </mxGeometry>
        </mxCell>
        <mxCell id="rAHK-XAyEVp0NB-nKjGV-19" value="Отклонить заявку" style="ellipse;whiteSpace=wrap;html=1;" vertex="1" parent="rAHK-XAyEVp0NB-nKjGV-4">
          <mxGeometry x="259.75" y="463.75" width="109" height="40" as="geometry" />
        </mxCell>
        <mxCell id="rAHK-XAyEVp0NB-nKjGV-20" style="rounded=0;orthogonalLoop=1;jettySize=auto;html=1;exitX=0;exitY=0.5;exitDx=0;exitDy=0;entryX=1;entryY=0.5;entryDx=0;entryDy=0;dashed=1;" edge="1" parent="rAHK-XAyEVp0NB-nKjGV-4" source="rAHK-XAyEVp0NB-nKjGV-19" target="rAHK-XAyEVp0NB-nKjGV-15">
          <mxGeometry relative="1" as="geometry" />
        </mxCell>
        <mxCell id="rAHK-XAyEVp0NB-nKjGV-21" value="extend" style="edgeLabel;html=1;align=center;verticalAlign=middle;resizable=0;points=[];labelBackgroundColor=default;" vertex="1" connectable="0" parent="rAHK-XAyEVp0NB-nKjGV-20">
          <mxGeometry x="-0.1761" y="1" relative="1" as="geometry">
            <mxPoint as="offset" />
          </mxGeometry>
        </mxCell>
        <mxCell id="rAHK-XAyEVp0NB-nKjGV-22" value="&lt;span&gt;Выставить план&amp;nbsp;&lt;/span&gt;&lt;span style=&quot;background-color: transparent; color: light-dark(rgb(0, 0, 0), rgb(255, 255, 255));&quot;&gt;индивидуальных занятий для клиента&lt;/span&gt;" style="ellipse;whiteSpace=wrap;html=1;" vertex="1" parent="rAHK-XAyEVp0NB-nKjGV-4">
          <mxGeometry x="138.75" y="310" width="168" height="72.5" as="geometry" />
        </mxCell>
        <mxCell id="rAHK-XAyEVp0NB-nKjGV-23" style="rounded=0;orthogonalLoop=1;jettySize=auto;html=1;entryX=0.5;entryY=1;entryDx=0;entryDy=0;dashed=1;" edge="1" parent="rAHK-XAyEVp0NB-nKjGV-4" source="rAHK-XAyEVp0NB-nKjGV-16" target="rAHK-XAyEVp0NB-nKjGV-22">
          <mxGeometry relative="1" as="geometry" />
        </mxCell>
        <mxCell id="rAHK-XAyEVp0NB-nKjGV-24" value="&lt;span&gt;includ&lt;/span&gt;" style="edgeLabel;html=1;align=center;verticalAlign=middle;resizable=0;points=[];labelBackgroundColor=default;" vertex="1" connectable="0" parent="rAHK-XAyEVp0NB-nKjGV-23">
          <mxGeometry x="-0.1274" y="-1" relative="1" as="geometry">
            <mxPoint as="offset" />
          </mxGeometry>
        </mxCell>
        <mxCell id="rAHK-XAyEVp0NB-nKjGV-25" value="&lt;span&gt;Указать причину отклонения заявки&lt;/span&gt;" style="ellipse;whiteSpace=wrap;html=1;" vertex="1" parent="rAHK-XAyEVp0NB-nKjGV-4">
          <mxGeometry x="149.5" y="533.75" width="181" height="40" as="geometry" />
        </mxCell>
        <mxCell id="rAHK-XAyEVp0NB-nKjGV-26" style="rounded=0;orthogonalLoop=1;jettySize=auto;html=1;exitX=0.5;exitY=1;exitDx=0;exitDy=0;entryX=0.5;entryY=0;entryDx=0;entryDy=0;dashed=1;" edge="1" parent="rAHK-XAyEVp0NB-nKjGV-4" source="rAHK-XAyEVp0NB-nKjGV-19" target="rAHK-XAyEVp0NB-nKjGV-25">
          <mxGeometry relative="1" as="geometry">
            <mxPoint x="314.25" y="539.25" as="targetPoint" />
          </mxGeometry>
        </mxCell>
        <mxCell id="rAHK-XAyEVp0NB-nKjGV-27" value="&lt;span style=&quot;&quot;&gt;includ&lt;/span&gt;" style="edgeLabel;html=1;align=center;verticalAlign=middle;resizable=0;points=[];labelBackgroundColor=default;" vertex="1" connectable="0" parent="rAHK-XAyEVp0NB-nKjGV-26">
          <mxGeometry x="0.0816" y="-1" relative="1" as="geometry">
            <mxPoint y="-4" as="offset" />
          </mxGeometry>
        </mxCell>
        <mxCell id="rAHK-XAyEVp0NB-nKjGV-28" value="Указать цель, которую&lt;div&gt;клиент хочет достигнуть&lt;/div&gt;" style="ellipse;whiteSpace=wrap;html=1;" vertex="1" parent="rAHK-XAyEVp0NB-nKjGV-4">
          <mxGeometry x="320" y="190" width="184" height="50" as="geometry" />
        </mxCell>
        <mxCell id="rAHK-XAyEVp0NB-nKjGV-29" value="Отправить заявку&lt;div&gt;тренеру&lt;/div&gt;" style="ellipse;whiteSpace=wrap;html=1;" vertex="1" parent="rAHK-XAyEVp0NB-nKjGV-4">
          <mxGeometry x="257" y="270" width="136" height="40" as="geometry" />
        </mxCell>
        <mxCell id="rAHK-XAyEVp0NB-nKjGV-30" style="edgeStyle=orthogonalEdgeStyle;rounded=0;orthogonalLoop=1;jettySize=auto;html=1;exitX=0.5;exitY=1;exitDx=0;exitDy=0;" edge="1" parent="rAHK-XAyEVp0NB-nKjGV-4" source="rAHK-XAyEVp0NB-nKjGV-29" target="rAHK-XAyEVp0NB-nKjGV-29">
          <mxGeometry relative="1" as="geometry" />
        </mxCell>
        <mxCell id="rAHK-XAyEVp0NB-nKjGV-31" value="Посмотреть список своих&lt;div&gt;заявок с результатом&lt;/div&gt;" style="ellipse;whiteSpace=wrap;html=1;" vertex="1" parent="rAHK-XAyEVp0NB-nKjGV-4">
          <mxGeometry x="407.2" y="404" width="179" height="56" as="geometry" />
        </mxCell>
        <mxCell id="rAHK-XAyEVp0NB-nKjGV-32" value="&lt;span style=&quot;text-align: justify;&quot;&gt;Посмотреть&amp;nbsp;&lt;/span&gt;&lt;font style=&quot;text-align: justify;&quot;&gt;прогресс&lt;/font&gt;" style="ellipse;whiteSpace=wrap;html=1;" vertex="1" parent="rAHK-XAyEVp0NB-nKjGV-4">
          <mxGeometry x="399.58" y="542.5" width="184.75" height="47.5" as="geometry" />
        </mxCell>
        <mxCell id="rAHK-XAyEVp0NB-nKjGV-33" value="Зарегистрироваться в системе" style="ellipse;whiteSpace=wrap;html=1;" vertex="1" parent="rAHK-XAyEVp0NB-nKjGV-4">
          <mxGeometry x="359.25" y="40" width="189" height="40" as="geometry" />
        </mxCell>
        <mxCell id="rAHK-XAyEVp0NB-nKjGV-34" value="Посмотреть список тренеров" style="ellipse;whiteSpace=wrap;html=1;" vertex="1" parent="rAHK-XAyEVp0NB-nKjGV-4">
          <mxGeometry x="420.45" y="340" width="179" height="52.5" as="geometry" />
        </mxCell>
        <mxCell id="rAHK-XAyEVp0NB-nKjGV-35" value="&lt;font face=&quot;Helvetica&quot;&gt;Авторизироваться в системе&lt;/font&gt;" style="ellipse;whiteSpace=wrap;html=1;" vertex="1" parent="rAHK-XAyEVp0NB-nKjGV-4">
          <mxGeometry x="360" y="100" width="189" height="40" as="geometry" />
        </mxCell>
        <mxCell id="rAHK-XAyEVp0NB-nKjGV-36" style="rounded=0;orthogonalLoop=1;jettySize=auto;html=1;exitX=0.5;exitY=0.5;exitDx=0;exitDy=0;exitPerimeter=0;endArrow=none;startFill=0;entryX=1;entryY=0.5;entryDx=0;entryDy=0;" edge="1" parent="1" source="rAHK-XAyEVp0NB-nKjGV-47" target="rAHK-XAyEVp0NB-nKjGV-33">
          <mxGeometry relative="1" as="geometry">
            <mxPoint x="1542" y="170" as="targetPoint" />
          </mxGeometry>
        </mxCell>
        <mxCell id="rAHK-XAyEVp0NB-nKjGV-37" style="rounded=0;orthogonalLoop=1;jettySize=auto;html=1;exitX=0.5;exitY=0.5;exitDx=0;exitDy=0;exitPerimeter=0;entryX=1;entryY=0.5;entryDx=0;entryDy=0;endArrow=none;startFill=0;" edge="1" parent="1" source="rAHK-XAyEVp0NB-nKjGV-41" target="rAHK-XAyEVp0NB-nKjGV-34">
          <mxGeometry relative="1" as="geometry">
            <mxPoint x="1562.1999999999998" y="427.5000000000001" as="targetPoint" />
          </mxGeometry>
        </mxCell>
        <mxCell id="rAHK-XAyEVp0NB-nKjGV-38" style="rounded=0;orthogonalLoop=1;jettySize=auto;html=1;exitX=0.5;exitY=0.5;exitDx=0;exitDy=0;exitPerimeter=0;entryX=1;entryY=0.5;entryDx=0;entryDy=0;endArrow=none;startFill=0;" edge="1" parent="1" source="rAHK-XAyEVp0NB-nKjGV-41" target="rAHK-XAyEVp0NB-nKjGV-32">
          <mxGeometry relative="1" as="geometry">
            <mxPoint x="1534.2000000000003" y="691.25" as="targetPoint" />
          </mxGeometry>
        </mxCell>
        <mxCell id="rAHK-XAyEVp0NB-nKjGV-39" style="rounded=0;orthogonalLoop=1;jettySize=auto;html=1;exitX=0.5;exitY=0.5;exitDx=0;exitDy=0;exitPerimeter=0;entryX=1;entryY=0.5;entryDx=0;entryDy=0;endArrow=none;startFill=0;" edge="1" parent="1" source="rAHK-XAyEVp0NB-nKjGV-41" target="rAHK-XAyEVp0NB-nKjGV-14">
          <mxGeometry relative="1" as="geometry" />
        </mxCell>
        <mxCell id="rAHK-XAyEVp0NB-nKjGV-40" style="rounded=0;orthogonalLoop=1;jettySize=auto;html=1;exitX=0.5;exitY=0.5;exitDx=0;exitDy=0;exitPerimeter=0;entryX=1;entryY=0.5;entryDx=0;entryDy=0;endArrow=none;startFill=0;" edge="1" parent="1" source="rAHK-XAyEVp0NB-nKjGV-41" target="rAHK-XAyEVp0NB-nKjGV-31">
          <mxGeometry relative="1" as="geometry">
            <mxPoint x="1539.2" y="522.5" as="targetPoint" />
          </mxGeometry>
        </mxCell>
        <mxCell id="rAHK-XAyEVp0NB-nKjGV-41" value="&lt;span style=&quot;background-color: light-dark(#ffffff, var(--ge-dark-color, #121212));&quot;&gt;Клиент&lt;/span&gt;" style="shape=umlActor;verticalLabelPosition=bottom;verticalAlign=top;html=1;outlineConnect=0;" vertex="1" parent="1">
          <mxGeometry x="1584.2" y="460" width="30" height="60" as="geometry" />
        </mxCell>
        <mxCell id="rAHK-XAyEVp0NB-nKjGV-42" style="rounded=0;orthogonalLoop=1;jettySize=auto;html=1;exitX=0.5;exitY=0.5;exitDx=0;exitDy=0;exitPerimeter=0;entryX=0;entryY=0.5;entryDx=0;entryDy=0;endArrow=none;startFill=0;" edge="1" parent="1" source="rAHK-XAyEVp0NB-nKjGV-45" target="rAHK-XAyEVp0NB-nKjGV-7">
          <mxGeometry relative="1" as="geometry" />
        </mxCell>
        <mxCell id="rAHK-XAyEVp0NB-nKjGV-43" style="rounded=0;orthogonalLoop=1;jettySize=auto;html=1;exitX=0.5;exitY=0.5;exitDx=0;exitDy=0;exitPerimeter=0;entryX=0;entryY=0.5;entryDx=0;entryDy=0;endArrow=none;startFill=0;" edge="1" parent="1" source="rAHK-XAyEVp0NB-nKjGV-45" target="rAHK-XAyEVp0NB-nKjGV-6">
          <mxGeometry relative="1" as="geometry" />
        </mxCell>
        <mxCell id="rAHK-XAyEVp0NB-nKjGV-44" style="rounded=0;orthogonalLoop=1;jettySize=auto;html=1;exitX=0.5;exitY=0.5;exitDx=0;exitDy=0;exitPerimeter=0;endArrow=none;startFill=0;entryX=0;entryY=0.5;entryDx=0;entryDy=0;" edge="1" parent="1" source="rAHK-XAyEVp0NB-nKjGV-45" target="rAHK-XAyEVp0NB-nKjGV-5">
          <mxGeometry relative="1" as="geometry">
            <mxPoint x="938" y="80" as="targetPoint" />
          </mxGeometry>
        </mxCell>
        <mxCell id="rAHK-XAyEVp0NB-nKjGV-45" value="&lt;span style=&quot;background-color: light-dark(#ffffff, var(--ge-dark-color, #121212));&quot;&gt;Администратор&lt;/span&gt;" style="shape=umlActor;verticalLabelPosition=bottom;verticalAlign=top;html=1;outlineConnect=0;" vertex="1" parent="1">
          <mxGeometry x="870" y="175" width="30" height="60" as="geometry" />
        </mxCell>
        <mxCell id="rAHK-XAyEVp0NB-nKjGV-46" style="rounded=0;orthogonalLoop=1;jettySize=auto;html=1;exitX=0.5;exitY=0.5;exitDx=0;exitDy=0;exitPerimeter=0;entryX=1;entryY=0.5;entryDx=0;entryDy=0;endArrow=none;startFill=0;" edge="1" parent="1" source="rAHK-XAyEVp0NB-nKjGV-47" target="rAHK-XAyEVp0NB-nKjGV-35">
          <mxGeometry relative="1" as="geometry" />
        </mxCell>
        <mxCell id="rAHK-XAyEVp0NB-nKjGV-47" value="&lt;span style=&quot;background-color: light-dark(#ffffff, var(--ge-dark-color, #121212));&quot;&gt;Неавто&lt;/span&gt;&lt;span style=&quot;background-color: light-dark(#ffffff, var(--ge-dark-color, #121212)); color: light-dark(rgb(0, 0, 0), rgb(255, 255, 255));&quot;&gt;ризированый&lt;/span&gt;&lt;div&gt;&lt;div&gt;&lt;span style=&quot;background-color: light-dark(#ffffff, var(--ge-dark-color, #121212));&quot;&gt;пользователь&lt;/span&gt;&lt;/div&gt;&lt;/div&gt;" style="shape=umlActor;verticalLabelPosition=bottom;verticalAlign=top;html=1;outlineConnect=0;" vertex="1" parent="1">
          <mxGeometry x="1570" y="80" width="30" height="60" as="geometry" />
        </mxCell>
      </root>
    </mxGraphModel>
  </diagram>
</mxfile>
